<svg width="80" height="80" viewBox="0 0 256 256" enable-background="new 0 0 256 256" xml:space="preserve">
  <g>
    <g>
    <path fill="currentColor" data-title="Layer 0" xs="0" d="M216.8,34.6c-11.1-7.8-23.8-11.4-36.4-11.4c-19.3,0-38.6,8.4-52.4,23c-13.8-14.6-33.1-23-52.4-23c-12.6,0-25.3,3.6-36.4,11.4C8.2,56.3,0.7,99,22.4,129.9c0,0,8.5,10.8,14.2,17c4.6,5.1,69.5,67.4,87.1,83.9c0,0,2.1,2,4.4,2c2.5,0,4.3-2,4.3-2c17.5-16.5,82.4-78.8,87.1-83.9c5.7-6.2,14.2-17,14.2-17C255.3,99,247.8,56.3,216.8,34.6L216.8,34.6z"/>
    </g>
  </g>
</svg>