<svg xmlns="http://www.w3.org/2000/svg" viewBox="0 0 74.5 73.03"><defs><style>.cls-1{fill:#c0c9da;}.cls-2{fill:#fff;}</style></defs><title>Recurso 381</title><g id="Capa_2" data-name="Capa 2"><g id="Capa_1-2" data-name="Capa 1"><rect class="cls-1" width="74.5" height="73.03" rx="16.46"/><path class="cls-2" d="M37.25,15.26A21.26,21.26,0,1,0,58.51,36.52,21.28,21.28,0,0,0,37.25,15.26Zm0,38.65A17.4,17.4,0,1,1,54.64,36.52,17.42,17.42,0,0,1,37.25,53.91Z"/><path class="cls-2" d="M41.11,30.72H32.25l3.87-3.87-2.74-2.73-8.53,8.53,8.53,8.53,2.74-2.73-3.87-3.87h8.86a3.87,3.87,0,1,1,0,7.73H39.18v3.87h1.93a7.73,7.73,0,1,0,0-15.46Z"/></g></g></svg>